<mxfile host="app.diagrams.net" agent="Mozilla/5.0 (Windows NT 10.0; Win64; x64) AppleWebKit/537.36 (KHTML, like Gecko) Chrome/141.0.0.0 Safari/537.36" version="28.2.7">
  <diagram name="Página-1" id="42-V9xi4SYNsx4r_9grk">
    <mxGraphModel dx="2657" dy="1922" grid="1" gridSize="10" guides="1" tooltips="1" connect="1" arrows="1" fold="1" page="1" pageScale="1" pageWidth="827" pageHeight="1169" math="0" shadow="0">
      <root>
        <mxCell id="0" />
        <mxCell id="1" parent="0" />
        <mxCell id="3J5FbJV3vqm6lLi7jXm8-5" value="Club" style="rounded=0;whiteSpace=wrap;html=1;" parent="1" vertex="1">
          <mxGeometry x="294" y="30" width="120" height="60" as="geometry" />
        </mxCell>
        <mxCell id="3J5FbJV3vqm6lLi7jXm8-6" value="Torneo" style="rounded=0;whiteSpace=wrap;html=1;" parent="1" vertex="1">
          <mxGeometry x="750" y="30" width="120" height="60" as="geometry" />
        </mxCell>
        <mxCell id="3J5FbJV3vqm6lLi7jXm8-7" value="Federación" style="rounded=0;whiteSpace=wrap;html=1;" parent="1" vertex="1">
          <mxGeometry x="-70" y="30" width="120" height="60" as="geometry" />
        </mxCell>
        <mxCell id="3J5FbJV3vqm6lLi7jXm8-9" value="" style="endArrow=none;html=1;rounded=0;entryX=0.5;entryY=1;entryDx=0;entryDy=0;exitX=0.5;exitY=0;exitDx=0;exitDy=0;" parent="1" source="3J5FbJV3vqm6lLi7jXm8-6" target="3J5FbJV3vqm6lLi7jXm8-10" edge="1">
          <mxGeometry width="50" height="50" relative="1" as="geometry">
            <mxPoint x="280" y="340" as="sourcePoint" />
            <mxPoint x="270" y="240" as="targetPoint" />
          </mxGeometry>
        </mxCell>
        <mxCell id="3J5FbJV3vqm6lLi7jXm8-10" value="Normas" style="ellipse;whiteSpace=wrap;html=1;" parent="1" vertex="1">
          <mxGeometry x="930" y="-70" width="100" height="50" as="geometry" />
        </mxCell>
        <mxCell id="3J5FbJV3vqm6lLi7jXm8-11" value="" style="endArrow=none;html=1;rounded=0;entryX=0.5;entryY=1;entryDx=0;entryDy=0;exitX=0.5;exitY=0;exitDx=0;exitDy=0;" parent="1" source="3J5FbJV3vqm6lLi7jXm8-6" target="3J5FbJV3vqm6lLi7jXm8-12" edge="1">
          <mxGeometry width="50" height="50" relative="1" as="geometry">
            <mxPoint x="730" y="30" as="sourcePoint" />
            <mxPoint x="380" y="250" as="targetPoint" />
          </mxGeometry>
        </mxCell>
        <mxCell id="3J5FbJV3vqm6lLi7jXm8-12" value="FechaIni" style="ellipse;whiteSpace=wrap;html=1;" parent="1" vertex="1">
          <mxGeometry x="840" y="-160" width="100" height="50" as="geometry" />
        </mxCell>
        <mxCell id="3J5FbJV3vqm6lLi7jXm8-15" value="" style="endArrow=none;html=1;rounded=0;exitX=0.5;exitY=0;exitDx=0;exitDy=0;entryX=0;entryY=1;entryDx=0;entryDy=0;" parent="1" source="3J5FbJV3vqm6lLi7jXm8-6" target="3J5FbJV3vqm6lLi7jXm8-16" edge="1">
          <mxGeometry width="50" height="50" relative="1" as="geometry">
            <mxPoint x="340" y="360" as="sourcePoint" />
            <mxPoint x="450" y="280" as="targetPoint" />
          </mxGeometry>
        </mxCell>
        <mxCell id="NyAmRuKAntcfQHbQOcb_-1" value="" style="endArrow=none;html=1;rounded=0;exitX=0.5;exitY=0;exitDx=0;exitDy=0;entryX=0.5;entryY=1;entryDx=0;entryDy=0;" parent="1" source="3J5FbJV3vqm6lLi7jXm8-6" target="NyAmRuKAntcfQHbQOcb_-2" edge="1">
          <mxGeometry width="50" height="50" relative="1" as="geometry">
            <mxPoint x="270" y="360" as="sourcePoint" />
            <mxPoint x="210" y="200" as="targetPoint" />
          </mxGeometry>
        </mxCell>
        <mxCell id="NyAmRuKAntcfQHbQOcb_-2" value="&lt;u&gt;IdTorneo&lt;/u&gt;" style="ellipse;whiteSpace=wrap;html=1;" parent="1" vertex="1">
          <mxGeometry x="727" y="-170" width="100" height="50" as="geometry" />
        </mxCell>
        <mxCell id="NyAmRuKAntcfQHbQOcb_-3" value="&lt;u&gt;IdFederacion&lt;/u&gt;" style="ellipse;whiteSpace=wrap;html=1;" parent="1" vertex="1">
          <mxGeometry x="-210" y="-80" width="100" height="50" as="geometry" />
        </mxCell>
        <mxCell id="NyAmRuKAntcfQHbQOcb_-4" value="" style="endArrow=none;html=1;rounded=0;entryX=0.25;entryY=0;entryDx=0;entryDy=0;" parent="1" source="NyAmRuKAntcfQHbQOcb_-3" target="3J5FbJV3vqm6lLi7jXm8-7" edge="1">
          <mxGeometry width="50" height="50" relative="1" as="geometry">
            <mxPoint x="480" y="57" as="sourcePoint" />
            <mxPoint x="547" y="20" as="targetPoint" />
          </mxGeometry>
        </mxCell>
        <mxCell id="NyAmRuKAntcfQHbQOcb_-5" value="" style="endArrow=none;html=1;rounded=0;exitX=0.5;exitY=0;exitDx=0;exitDy=0;entryX=0.5;entryY=1;entryDx=0;entryDy=0;" parent="1" source="3J5FbJV3vqm6lLi7jXm8-7" target="NyAmRuKAntcfQHbQOcb_-6" edge="1">
          <mxGeometry width="50" height="50" relative="1" as="geometry">
            <mxPoint x="580" y="40" as="sourcePoint" />
            <mxPoint x="640" y="-80" as="targetPoint" />
          </mxGeometry>
        </mxCell>
        <mxCell id="NyAmRuKAntcfQHbQOcb_-6" value="Nombre" style="ellipse;whiteSpace=wrap;html=1;" parent="1" vertex="1">
          <mxGeometry x="-80" y="-100" width="100" height="50" as="geometry" />
        </mxCell>
        <mxCell id="NyAmRuKAntcfQHbQOcb_-7" value="Correo" style="ellipse;whiteSpace=wrap;html=1;" parent="1" vertex="1">
          <mxGeometry x="-20" y="-60" width="100" height="50" as="geometry" />
        </mxCell>
        <mxCell id="NyAmRuKAntcfQHbQOcb_-8" value="Telefono" style="ellipse;whiteSpace=wrap;html=1;" parent="1" vertex="1">
          <mxGeometry x="50" y="-110" width="100" height="50" as="geometry" />
        </mxCell>
        <mxCell id="NyAmRuKAntcfQHbQOcb_-9" value="Direccion" style="ellipse;whiteSpace=wrap;html=1;" parent="1" vertex="1">
          <mxGeometry x="-120" y="-50" width="100" height="50" as="geometry" />
        </mxCell>
        <mxCell id="NyAmRuKAntcfQHbQOcb_-10" value="" style="endArrow=none;html=1;rounded=0;exitX=0.75;exitY=0;exitDx=0;exitDy=0;" parent="1" source="3J5FbJV3vqm6lLi7jXm8-7" target="NyAmRuKAntcfQHbQOcb_-7" edge="1">
          <mxGeometry width="50" height="50" relative="1" as="geometry">
            <mxPoint x="640" y="40" as="sourcePoint" />
            <mxPoint x="680" y="-100" as="targetPoint" />
          </mxGeometry>
        </mxCell>
        <mxCell id="NyAmRuKAntcfQHbQOcb_-11" value="" style="endArrow=none;html=1;rounded=0;exitX=0.375;exitY=0.017;exitDx=0;exitDy=0;entryX=0.61;entryY=1.036;entryDx=0;entryDy=0;exitPerimeter=0;entryPerimeter=0;" parent="1" source="3J5FbJV3vqm6lLi7jXm8-7" target="NyAmRuKAntcfQHbQOcb_-9" edge="1">
          <mxGeometry width="50" height="50" relative="1" as="geometry">
            <mxPoint x="640" y="170" as="sourcePoint" />
            <mxPoint x="680" y="30" as="targetPoint" />
          </mxGeometry>
        </mxCell>
        <mxCell id="NyAmRuKAntcfQHbQOcb_-12" value="" style="endArrow=none;html=1;rounded=0;exitX=1;exitY=0.25;exitDx=0;exitDy=0;" parent="1" source="3J5FbJV3vqm6lLi7jXm8-7" target="NyAmRuKAntcfQHbQOcb_-8" edge="1">
          <mxGeometry width="50" height="50" relative="1" as="geometry">
            <mxPoint x="770" y="270" as="sourcePoint" />
            <mxPoint x="810" y="130" as="targetPoint" />
          </mxGeometry>
        </mxCell>
        <mxCell id="NyAmRuKAntcfQHbQOcb_-14" value="&lt;u&gt;IdClub&lt;/u&gt;" style="ellipse;whiteSpace=wrap;html=1;" parent="1" vertex="1">
          <mxGeometry x="180" y="-170" width="100" height="50" as="geometry" />
        </mxCell>
        <mxCell id="NyAmRuKAntcfQHbQOcb_-15" value="Nombre" style="ellipse;whiteSpace=wrap;html=1;" parent="1" vertex="1">
          <mxGeometry x="294" y="-210" width="100" height="50" as="geometry" />
        </mxCell>
        <mxCell id="NyAmRuKAntcfQHbQOcb_-16" value="CIF" style="ellipse;whiteSpace=wrap;html=1;" parent="1" vertex="1">
          <mxGeometry x="414" y="-240" width="100" height="50" as="geometry" />
        </mxCell>
        <mxCell id="NyAmRuKAntcfQHbQOcb_-17" value="Direccion" style="ellipse;whiteSpace=wrap;html=1;" parent="1" vertex="1">
          <mxGeometry x="250" y="-130" width="100" height="50" as="geometry" />
        </mxCell>
        <mxCell id="NyAmRuKAntcfQHbQOcb_-18" value="Correo" style="ellipse;whiteSpace=wrap;html=1;" parent="1" vertex="1">
          <mxGeometry x="430" y="-90" width="100" height="50" as="geometry" />
        </mxCell>
        <mxCell id="NyAmRuKAntcfQHbQOcb_-19" value="Telefono" style="ellipse;whiteSpace=wrap;html=1;" parent="1" vertex="1">
          <mxGeometry x="340" y="-170" width="100" height="50" as="geometry" />
        </mxCell>
        <mxCell id="NyAmRuKAntcfQHbQOcb_-20" value="Validado" style="ellipse;whiteSpace=wrap;html=1;" parent="1" vertex="1">
          <mxGeometry x="430" y="-150" width="100" height="50" as="geometry" />
        </mxCell>
        <mxCell id="NyAmRuKAntcfQHbQOcb_-21" value="" style="endArrow=none;html=1;rounded=0;exitX=0.5;exitY=1;exitDx=0;exitDy=0;entryX=0.5;entryY=0;entryDx=0;entryDy=0;" parent="1" source="NyAmRuKAntcfQHbQOcb_-14" target="3J5FbJV3vqm6lLi7jXm8-5" edge="1">
          <mxGeometry width="50" height="50" relative="1" as="geometry">
            <mxPoint x="350" y="457" as="sourcePoint" />
            <mxPoint x="447" y="450" as="targetPoint" />
          </mxGeometry>
        </mxCell>
        <mxCell id="NyAmRuKAntcfQHbQOcb_-22" value="" style="endArrow=none;html=1;rounded=0;exitX=0.5;exitY=1;exitDx=0;exitDy=0;entryX=0.5;entryY=0;entryDx=0;entryDy=0;" parent="1" source="NyAmRuKAntcfQHbQOcb_-17" target="3J5FbJV3vqm6lLi7jXm8-5" edge="1">
          <mxGeometry width="50" height="50" relative="1" as="geometry">
            <mxPoint x="530" y="427" as="sourcePoint" />
            <mxPoint x="627" y="420" as="targetPoint" />
          </mxGeometry>
        </mxCell>
        <mxCell id="NyAmRuKAntcfQHbQOcb_-23" value="" style="endArrow=none;html=1;rounded=0;exitX=0.5;exitY=0;exitDx=0;exitDy=0;entryX=0.6;entryY=1;entryDx=0;entryDy=0;entryPerimeter=0;" parent="1" source="3J5FbJV3vqm6lLi7jXm8-5" target="NyAmRuKAntcfQHbQOcb_-15" edge="1">
          <mxGeometry width="50" height="50" relative="1" as="geometry">
            <mxPoint x="640" y="297" as="sourcePoint" />
            <mxPoint x="737" y="290" as="targetPoint" />
          </mxGeometry>
        </mxCell>
        <mxCell id="NyAmRuKAntcfQHbQOcb_-24" value="" style="endArrow=none;html=1;rounded=0;exitX=0.5;exitY=0;exitDx=0;exitDy=0;entryX=0.5;entryY=1;entryDx=0;entryDy=0;" parent="1" source="3J5FbJV3vqm6lLi7jXm8-5" target="NyAmRuKAntcfQHbQOcb_-19" edge="1">
          <mxGeometry width="50" height="50" relative="1" as="geometry">
            <mxPoint x="650" y="537" as="sourcePoint" />
            <mxPoint x="747" y="530" as="targetPoint" />
          </mxGeometry>
        </mxCell>
        <mxCell id="NyAmRuKAntcfQHbQOcb_-25" value="" style="endArrow=none;html=1;rounded=0;exitX=0.5;exitY=0;exitDx=0;exitDy=0;entryX=0;entryY=1;entryDx=0;entryDy=0;" parent="1" source="3J5FbJV3vqm6lLi7jXm8-5" target="NyAmRuKAntcfQHbQOcb_-20" edge="1">
          <mxGeometry width="50" height="50" relative="1" as="geometry">
            <mxPoint x="610" y="537" as="sourcePoint" />
            <mxPoint x="707" y="530" as="targetPoint" />
          </mxGeometry>
        </mxCell>
        <mxCell id="NyAmRuKAntcfQHbQOcb_-26" value="" style="endArrow=none;html=1;rounded=0;exitX=0.5;exitY=0;exitDx=0;exitDy=0;entryX=0;entryY=0.5;entryDx=0;entryDy=0;" parent="1" source="3J5FbJV3vqm6lLi7jXm8-5" target="NyAmRuKAntcfQHbQOcb_-18" edge="1">
          <mxGeometry width="50" height="50" relative="1" as="geometry">
            <mxPoint x="740" y="457" as="sourcePoint" />
            <mxPoint x="837" y="450" as="targetPoint" />
          </mxGeometry>
        </mxCell>
        <mxCell id="NyAmRuKAntcfQHbQOcb_-27" value="" style="endArrow=none;html=1;rounded=0;exitX=0.5;exitY=0;exitDx=0;exitDy=0;entryX=0.5;entryY=1;entryDx=0;entryDy=0;" parent="1" source="3J5FbJV3vqm6lLi7jXm8-5" target="NyAmRuKAntcfQHbQOcb_-16" edge="1">
          <mxGeometry width="50" height="50" relative="1" as="geometry">
            <mxPoint x="810" y="477" as="sourcePoint" />
            <mxPoint x="907" y="470" as="targetPoint" />
          </mxGeometry>
        </mxCell>
        <mxCell id="NyAmRuKAntcfQHbQOcb_-29" value="Entrenador" style="rounded=0;whiteSpace=wrap;html=1;" parent="1" vertex="1">
          <mxGeometry x="-40" y="245" width="120" height="60" as="geometry" />
        </mxCell>
        <mxCell id="NyAmRuKAntcfQHbQOcb_-30" value="&lt;u&gt;idEntrenador&lt;/u&gt;" style="ellipse;whiteSpace=wrap;html=1;" parent="1" vertex="1">
          <mxGeometry x="-120" y="130" width="100" height="50" as="geometry" />
        </mxCell>
        <mxCell id="NyAmRuKAntcfQHbQOcb_-31" value="Nombre" style="ellipse;whiteSpace=wrap;html=1;" parent="1" vertex="1">
          <mxGeometry x="-170" y="195" width="100" height="50" as="geometry" />
        </mxCell>
        <mxCell id="NyAmRuKAntcfQHbQOcb_-33" value="Apellidos" style="ellipse;whiteSpace=wrap;html=1;" parent="1" vertex="1">
          <mxGeometry x="-30" y="110" width="100" height="50" as="geometry" />
        </mxCell>
        <mxCell id="NyAmRuKAntcfQHbQOcb_-34" value="Correo" style="ellipse;whiteSpace=wrap;html=1;" parent="1" vertex="1">
          <mxGeometry x="40" y="160" width="100" height="50" as="geometry" />
        </mxCell>
        <mxCell id="NyAmRuKAntcfQHbQOcb_-35" value="" style="endArrow=none;html=1;rounded=0;exitX=0.25;exitY=0;exitDx=0;exitDy=0;entryX=0.076;entryY=0.828;entryDx=0;entryDy=0;entryPerimeter=0;" parent="1" source="NyAmRuKAntcfQHbQOcb_-29" target="NyAmRuKAntcfQHbQOcb_-30" edge="1">
          <mxGeometry width="50" height="50" relative="1" as="geometry">
            <mxPoint x="350" y="607" as="sourcePoint" />
            <mxPoint x="447" y="600" as="targetPoint" />
          </mxGeometry>
        </mxCell>
        <mxCell id="NyAmRuKAntcfQHbQOcb_-36" value="" style="endArrow=none;html=1;rounded=0;exitX=0.75;exitY=0;exitDx=0;exitDy=0;entryX=0.5;entryY=1;entryDx=0;entryDy=0;" parent="1" source="NyAmRuKAntcfQHbQOcb_-29" target="NyAmRuKAntcfQHbQOcb_-33" edge="1">
          <mxGeometry width="50" height="50" relative="1" as="geometry">
            <mxPoint x="340" y="557" as="sourcePoint" />
            <mxPoint x="437" y="550" as="targetPoint" />
          </mxGeometry>
        </mxCell>
        <mxCell id="NyAmRuKAntcfQHbQOcb_-37" value="" style="endArrow=none;html=1;rounded=0;exitX=0.907;exitY=0.07;exitDx=0;exitDy=0;exitPerimeter=0;entryX=0.348;entryY=1.012;entryDx=0;entryDy=0;entryPerimeter=0;" parent="1" source="NyAmRuKAntcfQHbQOcb_-29" target="NyAmRuKAntcfQHbQOcb_-34" edge="1">
          <mxGeometry width="50" height="50" relative="1" as="geometry">
            <mxPoint x="470" y="627" as="sourcePoint" />
            <mxPoint x="567" y="620" as="targetPoint" />
          </mxGeometry>
        </mxCell>
        <mxCell id="NyAmRuKAntcfQHbQOcb_-38" value="" style="endArrow=none;html=1;rounded=0;exitX=0.784;exitY=0.844;exitDx=0;exitDy=0;exitPerimeter=0;entryX=0.25;entryY=0;entryDx=0;entryDy=0;" parent="1" source="NyAmRuKAntcfQHbQOcb_-31" target="NyAmRuKAntcfQHbQOcb_-29" edge="1">
          <mxGeometry width="50" height="50" relative="1" as="geometry">
            <mxPoint x="80" y="687" as="sourcePoint" />
            <mxPoint x="177" y="680" as="targetPoint" />
          </mxGeometry>
        </mxCell>
        <mxCell id="NyAmRuKAntcfQHbQOcb_-39" value="Equipo" style="rounded=0;whiteSpace=wrap;html=1;" parent="1" vertex="1">
          <mxGeometry x="310" y="245" width="120" height="60" as="geometry" />
        </mxCell>
        <mxCell id="NyAmRuKAntcfQHbQOcb_-41" value="&lt;u&gt;IdEquipo&lt;/u&gt;" style="ellipse;whiteSpace=wrap;html=1;" parent="1" vertex="1">
          <mxGeometry x="20" y="410" width="100" height="50" as="geometry" />
        </mxCell>
        <mxCell id="NyAmRuKAntcfQHbQOcb_-43" value="Nombre" style="ellipse;whiteSpace=wrap;html=1;" parent="1" vertex="1">
          <mxGeometry x="-6" y="360" width="100" height="50" as="geometry" />
        </mxCell>
        <mxCell id="NyAmRuKAntcfQHbQOcb_-44" value="Categoría" style="ellipse;whiteSpace=wrap;html=1;" parent="1" vertex="1">
          <mxGeometry x="180" y="375" width="100" height="50" as="geometry" />
        </mxCell>
        <mxCell id="NyAmRuKAntcfQHbQOcb_-46" value="CodigoEquipo" style="ellipse;whiteSpace=wrap;html=1;" parent="1" vertex="1">
          <mxGeometry x="110" y="410" width="100" height="50" as="geometry" />
        </mxCell>
        <mxCell id="NyAmRuKAntcfQHbQOcb_-47" value="" style="endArrow=none;html=1;rounded=0;exitX=0.5;exitY=0;exitDx=0;exitDy=0;entryX=0;entryY=1;entryDx=0;entryDy=0;" parent="1" source="NyAmRuKAntcfQHbQOcb_-41" target="NyAmRuKAntcfQHbQOcb_-39" edge="1">
          <mxGeometry width="50" height="50" relative="1" as="geometry">
            <mxPoint x="620" y="480" as="sourcePoint" />
            <mxPoint x="682" y="557" as="targetPoint" />
          </mxGeometry>
        </mxCell>
        <mxCell id="NyAmRuKAntcfQHbQOcb_-49" value="" style="endArrow=none;html=1;rounded=0;entryX=0.5;entryY=0;entryDx=0;entryDy=0;exitX=0;exitY=1;exitDx=0;exitDy=0;" parent="1" source="NyAmRuKAntcfQHbQOcb_-39" target="NyAmRuKAntcfQHbQOcb_-46" edge="1">
          <mxGeometry width="50" height="50" relative="1" as="geometry">
            <mxPoint x="660" y="240" as="sourcePoint" />
            <mxPoint x="792" y="647" as="targetPoint" />
          </mxGeometry>
        </mxCell>
        <mxCell id="NyAmRuKAntcfQHbQOcb_-50" value="" style="endArrow=none;html=1;rounded=0;exitX=0;exitY=1;exitDx=0;exitDy=0;entryX=1;entryY=0;entryDx=0;entryDy=0;" parent="1" source="NyAmRuKAntcfQHbQOcb_-39" target="NyAmRuKAntcfQHbQOcb_-45" edge="1">
          <mxGeometry width="50" height="50" relative="1" as="geometry">
            <mxPoint x="740" y="620" as="sourcePoint" />
            <mxPoint x="802" y="697" as="targetPoint" />
          </mxGeometry>
        </mxCell>
        <mxCell id="NyAmRuKAntcfQHbQOcb_-53" value="Categoría" style="ellipse;whiteSpace=wrap;html=1;" parent="1" vertex="1">
          <mxGeometry x="930" y="-120" width="100" height="50" as="geometry" />
        </mxCell>
        <mxCell id="NyAmRuKAntcfQHbQOcb_-54" value="" style="endArrow=none;html=1;rounded=0;entryX=0.5;entryY=0;entryDx=0;entryDy=0;exitX=0;exitY=0.5;exitDx=0;exitDy=0;" parent="1" source="NyAmRuKAntcfQHbQOcb_-53" target="3J5FbJV3vqm6lLi7jXm8-6" edge="1">
          <mxGeometry width="50" height="50" relative="1" as="geometry">
            <mxPoint x="940" y="-100" as="sourcePoint" />
            <mxPoint x="10" y="340" as="targetPoint" />
          </mxGeometry>
        </mxCell>
        <mxCell id="NyAmRuKAntcfQHbQOcb_-55" value="Partido" style="rounded=0;whiteSpace=wrap;html=1;" parent="1" vertex="1">
          <mxGeometry x="780" y="270" width="120" height="60" as="geometry" />
        </mxCell>
        <mxCell id="NyAmRuKAntcfQHbQOcb_-56" value="Jugador" style="rounded=0;whiteSpace=wrap;html=1;" parent="1" vertex="1">
          <mxGeometry x="320" y="490" width="120" height="60" as="geometry" />
        </mxCell>
        <mxCell id="NyAmRuKAntcfQHbQOcb_-58" value="Nombre" style="ellipse;whiteSpace=wrap;html=1;" parent="1" vertex="1">
          <mxGeometry x="230" y="660" width="100" height="50" as="geometry" />
        </mxCell>
        <mxCell id="NyAmRuKAntcfQHbQOcb_-59" value="Apellidos" style="ellipse;whiteSpace=wrap;html=1;" parent="1" vertex="1">
          <mxGeometry x="194" y="610" width="100" height="50" as="geometry" />
        </mxCell>
        <mxCell id="NyAmRuKAntcfQHbQOcb_-60" value="Dorsal" style="ellipse;whiteSpace=wrap;html=1;" parent="1" vertex="1">
          <mxGeometry x="354" y="590" width="100" height="50" as="geometry" />
        </mxCell>
        <mxCell id="NyAmRuKAntcfQHbQOcb_-61" value="Posición" style="ellipse;whiteSpace=wrap;html=1;" parent="1" vertex="1">
          <mxGeometry x="450" y="610" width="100" height="50" as="geometry" />
        </mxCell>
        <mxCell id="NyAmRuKAntcfQHbQOcb_-62" value="&lt;u&gt;IdJugador&lt;/u&gt;" style="ellipse;whiteSpace=wrap;html=1;" parent="1" vertex="1">
          <mxGeometry x="94" y="590" width="100" height="50" as="geometry" />
        </mxCell>
        <mxCell id="NyAmRuKAntcfQHbQOcb_-63" value="Edad" style="ellipse;whiteSpace=wrap;html=1;" parent="1" vertex="1">
          <mxGeometry x="294" y="630" width="100" height="50" as="geometry" />
        </mxCell>
        <mxCell id="NyAmRuKAntcfQHbQOcb_-64" value="" style="endArrow=none;html=1;rounded=0;exitX=0.5;exitY=0;exitDx=0;exitDy=0;entryX=0.5;entryY=1;entryDx=0;entryDy=0;" parent="1" source="NyAmRuKAntcfQHbQOcb_-60" target="NyAmRuKAntcfQHbQOcb_-56" edge="1">
          <mxGeometry width="50" height="50" relative="1" as="geometry">
            <mxPoint x="-10" y="450" as="sourcePoint" />
            <mxPoint x="-160" y="630" as="targetPoint" />
          </mxGeometry>
        </mxCell>
        <mxCell id="NyAmRuKAntcfQHbQOcb_-65" value="" style="endArrow=none;html=1;rounded=0;exitX=0;exitY=0;exitDx=0;exitDy=0;entryX=0.5;entryY=1;entryDx=0;entryDy=0;" parent="1" source="NyAmRuKAntcfQHbQOcb_-61" target="NyAmRuKAntcfQHbQOcb_-56" edge="1">
          <mxGeometry width="50" height="50" relative="1" as="geometry">
            <mxPoint x="10" y="690" as="sourcePoint" />
            <mxPoint x="-100" y="620" as="targetPoint" />
          </mxGeometry>
        </mxCell>
        <mxCell id="NyAmRuKAntcfQHbQOcb_-66" value="" style="endArrow=none;html=1;rounded=0;exitX=0.5;exitY=0;exitDx=0;exitDy=0;" parent="1" source="NyAmRuKAntcfQHbQOcb_-58" edge="1">
          <mxGeometry width="50" height="50" relative="1" as="geometry">
            <mxPoint x="50" y="710" as="sourcePoint" />
            <mxPoint x="380" y="550" as="targetPoint" />
          </mxGeometry>
        </mxCell>
        <mxCell id="NyAmRuKAntcfQHbQOcb_-70" value="" style="endArrow=none;html=1;rounded=0;exitX=1;exitY=0.5;exitDx=0;exitDy=0;" parent="1" source="NyAmRuKAntcfQHbQOcb_-59" edge="1">
          <mxGeometry width="50" height="50" relative="1" as="geometry">
            <mxPoint x="10" y="710" as="sourcePoint" />
            <mxPoint x="380" y="550" as="targetPoint" />
          </mxGeometry>
        </mxCell>
        <mxCell id="NyAmRuKAntcfQHbQOcb_-71" value="" style="endArrow=none;html=1;rounded=0;exitX=1;exitY=0;exitDx=0;exitDy=0;entryX=0.5;entryY=1;entryDx=0;entryDy=0;" parent="1" source="NyAmRuKAntcfQHbQOcb_-62" target="NyAmRuKAntcfQHbQOcb_-56" edge="1">
          <mxGeometry width="50" height="50" relative="1" as="geometry">
            <mxPoint x="70" y="730" as="sourcePoint" />
            <mxPoint x="-40" y="660" as="targetPoint" />
          </mxGeometry>
        </mxCell>
        <mxCell id="NyAmRuKAntcfQHbQOcb_-72" value="" style="endArrow=none;html=1;rounded=0;exitX=0.5;exitY=1;exitDx=0;exitDy=0;entryX=0.5;entryY=0;entryDx=0;entryDy=0;" parent="1" source="NyAmRuKAntcfQHbQOcb_-56" target="NyAmRuKAntcfQHbQOcb_-63" edge="1">
          <mxGeometry width="50" height="50" relative="1" as="geometry">
            <mxPoint x="-330" y="480" as="sourcePoint" />
            <mxPoint x="-440" y="410" as="targetPoint" />
          </mxGeometry>
        </mxCell>
        <mxCell id="MXZDYFPnPLO7YS_QE3Bd-1" value="&lt;u&gt;IdPartido&lt;/u&gt;" style="ellipse;whiteSpace=wrap;html=1;" parent="1" vertex="1">
          <mxGeometry x="710" y="450" width="100" height="50" as="geometry" />
        </mxCell>
        <mxCell id="MXZDYFPnPLO7YS_QE3Bd-3" value="" style="endArrow=none;html=1;rounded=0;exitX=0.5;exitY=1;exitDx=0;exitDy=0;entryX=1;entryY=0;entryDx=0;entryDy=0;" parent="1" source="NyAmRuKAntcfQHbQOcb_-55" target="MXZDYFPnPLO7YS_QE3Bd-1" edge="1">
          <mxGeometry width="50" height="50" relative="1" as="geometry">
            <mxPoint x="-220" y="310" as="sourcePoint" />
            <mxPoint x="-330" y="240" as="targetPoint" />
          </mxGeometry>
        </mxCell>
        <mxCell id="MXZDYFPnPLO7YS_QE3Bd-4" value="" style="endArrow=none;html=1;rounded=0;entryX=0.5;entryY=1;entryDx=0;entryDy=0;exitX=0.5;exitY=1;exitDx=0;exitDy=0;" parent="1" source="MXZDYFPnPLO7YS_QE3Bd-5" target="NyAmRuKAntcfQHbQOcb_-55" edge="1">
          <mxGeometry width="50" height="50" relative="1" as="geometry">
            <mxPoint x="-210" y="210" as="sourcePoint" />
            <mxPoint x="-190" y="220" as="targetPoint" />
          </mxGeometry>
        </mxCell>
        <mxCell id="MXZDYFPnPLO7YS_QE3Bd-5" value="Fecha" style="ellipse;whiteSpace=wrap;html=1;" parent="1" vertex="1">
          <mxGeometry x="810" y="460" width="100" height="50" as="geometry" />
        </mxCell>
        <mxCell id="MXZDYFPnPLO7YS_QE3Bd-6" value="Hora" style="ellipse;whiteSpace=wrap;html=1;" parent="1" vertex="1">
          <mxGeometry x="760" y="510" width="100" height="50" as="geometry" />
        </mxCell>
        <mxCell id="MXZDYFPnPLO7YS_QE3Bd-7" value="Resultado" style="ellipse;whiteSpace=wrap;html=1;" parent="1" vertex="1">
          <mxGeometry x="920" y="510" width="100" height="50" as="geometry" />
        </mxCell>
        <mxCell id="MXZDYFPnPLO7YS_QE3Bd-8" value="" style="endArrow=none;html=1;rounded=0;exitX=0.5;exitY=1;exitDx=0;exitDy=0;entryX=0;entryY=0;entryDx=0;entryDy=0;" parent="1" source="NyAmRuKAntcfQHbQOcb_-55" target="MXZDYFPnPLO7YS_QE3Bd-7" edge="1">
          <mxGeometry width="50" height="50" relative="1" as="geometry">
            <mxPoint x="-275" y="310" as="sourcePoint" />
            <mxPoint x="-370" y="223" as="targetPoint" />
          </mxGeometry>
        </mxCell>
        <mxCell id="MXZDYFPnPLO7YS_QE3Bd-9" value="" style="endArrow=none;html=1;rounded=0;exitX=0.5;exitY=0;exitDx=0;exitDy=0;entryX=0.5;entryY=1;entryDx=0;entryDy=0;" parent="1" source="MXZDYFPnPLO7YS_QE3Bd-6" target="NyAmRuKAntcfQHbQOcb_-55" edge="1">
          <mxGeometry width="50" height="50" relative="1" as="geometry">
            <mxPoint x="85" y="350" as="sourcePoint" />
            <mxPoint x="-120" y="260" as="targetPoint" />
          </mxGeometry>
        </mxCell>
        <mxCell id="MXZDYFPnPLO7YS_QE3Bd-22" style="edgeStyle=orthogonalEdgeStyle;rounded=0;orthogonalLoop=1;jettySize=auto;html=1;exitX=0.5;exitY=1;exitDx=0;exitDy=0;" parent="1" edge="1">
          <mxGeometry relative="1" as="geometry">
            <mxPoint x="-270" y="850" as="sourcePoint" />
            <mxPoint x="-270" y="850" as="targetPoint" />
          </mxGeometry>
        </mxCell>
        <mxCell id="MXZDYFPnPLO7YS_QE3Bd-24" value="" style="endArrow=none;html=1;rounded=0;exitX=1;exitY=0.5;exitDx=0;exitDy=0;entryX=0;entryY=0.5;entryDx=0;entryDy=0;" parent="1" source="MXZDYFPnPLO7YS_QE3Bd-25" target="3J5FbJV3vqm6lLi7jXm8-5" edge="1">
          <mxGeometry width="50" height="50" relative="1" as="geometry">
            <mxPoint x="410" y="260" as="sourcePoint" />
            <mxPoint x="460" y="210" as="targetPoint" />
          </mxGeometry>
        </mxCell>
        <mxCell id="MXZDYFPnPLO7YS_QE3Bd-26" value="" style="endArrow=none;html=1;rounded=0;exitX=1;exitY=0.5;exitDx=0;exitDy=0;entryX=0;entryY=0.5;entryDx=0;entryDy=0;" parent="1" source="3J5FbJV3vqm6lLi7jXm8-7" target="MXZDYFPnPLO7YS_QE3Bd-25" edge="1">
          <mxGeometry width="50" height="50" relative="1" as="geometry">
            <mxPoint x="50" y="60" as="sourcePoint" />
            <mxPoint x="294" y="60" as="targetPoint" />
          </mxGeometry>
        </mxCell>
        <mxCell id="MXZDYFPnPLO7YS_QE3Bd-25" value="Contiene" style="rhombus;whiteSpace=wrap;html=1;" parent="1" vertex="1">
          <mxGeometry x="130" y="20" width="80" height="80" as="geometry" />
        </mxCell>
        <mxCell id="MXZDYFPnPLO7YS_QE3Bd-27" value="1:N" style="text;html=1;whiteSpace=wrap;strokeColor=none;fillColor=none;align=center;verticalAlign=middle;rounded=0;" parent="1" vertex="1">
          <mxGeometry x="130" y="-10" width="60" height="30" as="geometry" />
        </mxCell>
        <mxCell id="MXZDYFPnPLO7YS_QE3Bd-28" value="" style="endArrow=none;html=1;rounded=0;exitX=0.5;exitY=0;exitDx=0;exitDy=0;entryX=0.6;entryY=1;entryDx=0;entryDy=0;entryPerimeter=0;" parent="1" source="3J5FbJV3vqm6lLi7jXm8-6" target="3J5FbJV3vqm6lLi7jXm8-14" edge="1">
          <mxGeometry width="50" height="50" relative="1" as="geometry">
            <mxPoint x="-140" y="420" as="sourcePoint" />
            <mxPoint y="290" as="targetPoint" />
          </mxGeometry>
        </mxCell>
        <mxCell id="3J5FbJV3vqm6lLi7jXm8-14" value="FechaFin" style="ellipse;whiteSpace=wrap;html=1;" parent="1" vertex="1">
          <mxGeometry x="780" y="-220" width="100" height="50" as="geometry" />
        </mxCell>
        <mxCell id="MXZDYFPnPLO7YS_QE3Bd-38" value="" style="endArrow=none;html=1;rounded=0;entryX=0;entryY=1;entryDx=0;entryDy=0;" parent="1" source="NyAmRuKAntcfQHbQOcb_-43" target="NyAmRuKAntcfQHbQOcb_-39" edge="1">
          <mxGeometry width="50" height="50" relative="1" as="geometry">
            <mxPoint x="827" y="227" as="sourcePoint" />
            <mxPoint x="430" y="245" as="targetPoint" />
          </mxGeometry>
        </mxCell>
        <mxCell id="NyAmRuKAntcfQHbQOcb_-45" value="División" style="ellipse;whiteSpace=wrap;html=1;" parent="1" vertex="1">
          <mxGeometry x="100" y="350" width="100" height="50" as="geometry" />
        </mxCell>
        <mxCell id="MXZDYFPnPLO7YS_QE3Bd-39" value="" style="endArrow=none;html=1;rounded=0;entryX=0.5;entryY=1;entryDx=0;entryDy=0;exitX=0.37;exitY=-0.013;exitDx=0;exitDy=0;exitPerimeter=0;" parent="1" source="NyAmRuKAntcfQHbQOcb_-39" target="3J5FbJV3vqm6lLi7jXm8-5" edge="1">
          <mxGeometry width="50" height="50" relative="1" as="geometry">
            <mxPoint x="410" y="160" as="sourcePoint" />
            <mxPoint x="460" y="110" as="targetPoint" />
          </mxGeometry>
        </mxCell>
        <mxCell id="MXZDYFPnPLO7YS_QE3Bd-40" value="Tiene" style="rhombus;whiteSpace=wrap;html=1;rotation=90;" parent="1" vertex="1">
          <mxGeometry x="314" y="115" width="80" height="80" as="geometry" />
        </mxCell>
        <mxCell id="MXZDYFPnPLO7YS_QE3Bd-41" value="1:N" style="text;html=1;whiteSpace=wrap;strokeColor=none;fillColor=none;align=center;verticalAlign=middle;rounded=0;rotation=90;" parent="1" vertex="1">
          <mxGeometry x="394" y="140" width="60" height="30" as="geometry" />
        </mxCell>
        <mxCell id="MXZDYFPnPLO7YS_QE3Bd-44" value="" style="endArrow=none;html=1;rounded=0;exitX=1;exitY=0.5;exitDx=0;exitDy=0;entryX=0;entryY=0.5;entryDx=0;entryDy=0;" parent="1" source="MXZDYFPnPLO7YS_QE3Bd-46" target="NyAmRuKAntcfQHbQOcb_-39" edge="1">
          <mxGeometry width="50" height="50" relative="1" as="geometry">
            <mxPoint x="410" y="260" as="sourcePoint" />
            <mxPoint x="460" y="210" as="targetPoint" />
          </mxGeometry>
        </mxCell>
        <mxCell id="MXZDYFPnPLO7YS_QE3Bd-45" value="1:1" style="text;html=1;whiteSpace=wrap;strokeColor=none;fillColor=none;align=center;verticalAlign=middle;rounded=0;" parent="1" vertex="1">
          <mxGeometry x="160" y="200" width="60" height="30" as="geometry" />
        </mxCell>
        <mxCell id="MXZDYFPnPLO7YS_QE3Bd-49" value="" style="endArrow=none;html=1;rounded=0;exitX=1;exitY=0.5;exitDx=0;exitDy=0;entryX=0;entryY=0.5;entryDx=0;entryDy=0;" parent="1" source="NyAmRuKAntcfQHbQOcb_-29" target="MXZDYFPnPLO7YS_QE3Bd-46" edge="1">
          <mxGeometry width="50" height="50" relative="1" as="geometry">
            <mxPoint x="80" y="275" as="sourcePoint" />
            <mxPoint x="310" y="275" as="targetPoint" />
          </mxGeometry>
        </mxCell>
        <mxCell id="MXZDYFPnPLO7YS_QE3Bd-46" value="Dirige" style="rhombus;whiteSpace=wrap;html=1;rotation=0;" parent="1" vertex="1">
          <mxGeometry x="150" y="235" width="80" height="80" as="geometry" />
        </mxCell>
        <mxCell id="MXZDYFPnPLO7YS_QE3Bd-52" value="" style="endArrow=none;html=1;rounded=0;entryX=0.5;entryY=1;entryDx=0;entryDy=0;exitX=0;exitY=0.5;exitDx=0;exitDy=0;" parent="1" source="MXZDYFPnPLO7YS_QE3Bd-53" target="NyAmRuKAntcfQHbQOcb_-39" edge="1">
          <mxGeometry width="50" height="50" relative="1" as="geometry">
            <mxPoint x="319" y="355" as="sourcePoint" />
            <mxPoint x="369" y="305" as="targetPoint" />
          </mxGeometry>
        </mxCell>
        <mxCell id="MXZDYFPnPLO7YS_QE3Bd-54" value="" style="endArrow=none;html=1;rounded=0;entryX=1;entryY=0.5;entryDx=0;entryDy=0;exitX=0.413;exitY=-0.03;exitDx=0;exitDy=0;exitPerimeter=0;" parent="1" source="NyAmRuKAntcfQHbQOcb_-56" target="MXZDYFPnPLO7YS_QE3Bd-53" edge="1">
          <mxGeometry width="50" height="50" relative="1" as="geometry">
            <mxPoint x="370" y="488" as="sourcePoint" />
            <mxPoint x="370" y="305" as="targetPoint" />
          </mxGeometry>
        </mxCell>
        <mxCell id="MXZDYFPnPLO7YS_QE3Bd-53" value="Forman" style="rhombus;whiteSpace=wrap;html=1;rotation=90;" parent="1" vertex="1">
          <mxGeometry x="330" y="360" width="80" height="80" as="geometry" />
        </mxCell>
        <mxCell id="MXZDYFPnPLO7YS_QE3Bd-55" value="1:N" style="text;html=1;whiteSpace=wrap;strokeColor=none;fillColor=none;align=center;verticalAlign=middle;rounded=0;rotation=90;" parent="1" vertex="1">
          <mxGeometry x="404" y="380" width="60" height="30" as="geometry" />
        </mxCell>
        <mxCell id="3J5FbJV3vqm6lLi7jXm8-16" value="Localización" style="ellipse;whiteSpace=wrap;html=1;" parent="1" vertex="1">
          <mxGeometry x="940" y="-180" width="100" height="50" as="geometry" />
        </mxCell>
        <mxCell id="MXZDYFPnPLO7YS_QE3Bd-57" style="edgeStyle=orthogonalEdgeStyle;rounded=0;orthogonalLoop=1;jettySize=auto;html=1;exitX=0.5;exitY=1;exitDx=0;exitDy=0;" parent="1" source="3J5FbJV3vqm6lLi7jXm8-10" target="3J5FbJV3vqm6lLi7jXm8-10" edge="1">
          <mxGeometry relative="1" as="geometry" />
        </mxCell>
        <mxCell id="MXZDYFPnPLO7YS_QE3Bd-59" value="" style="endArrow=none;html=1;rounded=0;exitX=1;exitY=0.5;exitDx=0;exitDy=0;entryX=0;entryY=0.5;entryDx=0;entryDy=0;" parent="1" source="3J5FbJV3vqm6lLi7jXm8-5" target="3J5FbJV3vqm6lLi7jXm8-6" edge="1">
          <mxGeometry width="50" height="50" relative="1" as="geometry">
            <mxPoint x="420" y="10" as="sourcePoint" />
            <mxPoint x="470" y="-40" as="targetPoint" />
          </mxGeometry>
        </mxCell>
        <mxCell id="MXZDYFPnPLO7YS_QE3Bd-60" value="Organiza" style="rhombus;whiteSpace=wrap;html=1;" parent="1" vertex="1">
          <mxGeometry x="540" y="20" width="80" height="80" as="geometry" />
        </mxCell>
        <mxCell id="MXZDYFPnPLO7YS_QE3Bd-61" value="1:N" style="text;html=1;whiteSpace=wrap;strokeColor=none;fillColor=none;align=center;verticalAlign=middle;rounded=0;" parent="1" vertex="1">
          <mxGeometry x="550" y="-30" width="60" height="30" as="geometry" />
        </mxCell>
        <mxCell id="MXZDYFPnPLO7YS_QE3Bd-62" value="" style="endArrow=none;html=1;rounded=0;entryX=0.25;entryY=1;entryDx=0;entryDy=0;exitX=1;exitY=0.5;exitDx=0;exitDy=0;" parent="1" source="MXZDYFPnPLO7YS_QE3Bd-63" target="3J5FbJV3vqm6lLi7jXm8-6" edge="1">
          <mxGeometry width="50" height="50" relative="1" as="geometry">
            <mxPoint x="404" y="245" as="sourcePoint" />
            <mxPoint x="454" y="195" as="targetPoint" />
          </mxGeometry>
        </mxCell>
        <mxCell id="MXZDYFPnPLO7YS_QE3Bd-64" value="" style="endArrow=none;html=1;rounded=0;entryX=0;entryY=0.5;entryDx=0;entryDy=0;exitX=0.63;exitY=0.013;exitDx=0;exitDy=0;exitPerimeter=0;" parent="1" source="NyAmRuKAntcfQHbQOcb_-39" target="MXZDYFPnPLO7YS_QE3Bd-63" edge="1">
          <mxGeometry width="50" height="50" relative="1" as="geometry">
            <mxPoint x="386" y="246" as="sourcePoint" />
            <mxPoint x="780" y="90" as="targetPoint" />
          </mxGeometry>
        </mxCell>
        <mxCell id="MXZDYFPnPLO7YS_QE3Bd-63" value="Participa" style="rhombus;whiteSpace=wrap;html=1;rotation=-30;" parent="1" vertex="1">
          <mxGeometry x="600" y="130" width="80" height="80" as="geometry" />
        </mxCell>
        <mxCell id="MXZDYFPnPLO7YS_QE3Bd-65" value="N:M" style="text;html=1;whiteSpace=wrap;strokeColor=none;fillColor=none;align=center;verticalAlign=middle;rounded=0;rotation=-30;" parent="1" vertex="1">
          <mxGeometry x="640" y="205" width="60" height="30" as="geometry" />
        </mxCell>
        <mxCell id="MXZDYFPnPLO7YS_QE3Bd-67" value="" style="endArrow=none;html=1;rounded=0;entryX=0;entryY=1;entryDx=0;entryDy=0;exitX=1;exitY=0;exitDx=0;exitDy=0;" parent="1" source="NyAmRuKAntcfQHbQOcb_-44" target="NyAmRuKAntcfQHbQOcb_-39" edge="1">
          <mxGeometry width="50" height="50" relative="1" as="geometry">
            <mxPoint x="200" y="510" as="sourcePoint" />
            <mxPoint x="250" y="460" as="targetPoint" />
          </mxGeometry>
        </mxCell>
        <mxCell id="MXZDYFPnPLO7YS_QE3Bd-68" value="" style="endArrow=none;html=1;rounded=0;exitX=1;exitY=0.75;exitDx=0;exitDy=0;entryX=0;entryY=0.5;entryDx=0;entryDy=0;" parent="1" target="NyAmRuKAntcfQHbQOcb_-55" edge="1">
          <mxGeometry width="50" height="50" relative="1" as="geometry">
            <mxPoint x="430" y="300" as="sourcePoint" />
            <mxPoint x="860.800048828125" y="300" as="targetPoint" />
          </mxGeometry>
        </mxCell>
        <mxCell id="MXZDYFPnPLO7YS_QE3Bd-69" value="Juega" style="rhombus;whiteSpace=wrap;html=1;" parent="1" vertex="1">
          <mxGeometry x="600" y="260" width="80" height="80" as="geometry" />
        </mxCell>
        <mxCell id="MXZDYFPnPLO7YS_QE3Bd-70" value="N:M" style="text;html=1;whiteSpace=wrap;strokeColor=none;fillColor=none;align=center;verticalAlign=middle;rounded=0;" parent="1" vertex="1">
          <mxGeometry x="610" y="360" width="60" height="30" as="geometry" />
        </mxCell>
        <mxCell id="MXZDYFPnPLO7YS_QE3Bd-71" value="" style="endArrow=none;html=1;rounded=0;entryX=0.643;entryY=1.023;entryDx=0;entryDy=0;entryPerimeter=0;" parent="1" source="MXZDYFPnPLO7YS_QE3Bd-72" target="3J5FbJV3vqm6lLi7jXm8-6" edge="1">
          <mxGeometry width="50" height="50" relative="1" as="geometry">
            <mxPoint x="827" y="270" as="sourcePoint" />
            <mxPoint x="877" y="220" as="targetPoint" />
          </mxGeometry>
        </mxCell>
        <mxCell id="MXZDYFPnPLO7YS_QE3Bd-73" value="" style="endArrow=none;html=1;rounded=0;entryX=1;entryY=0.5;entryDx=0;entryDy=0;" parent="1" target="MXZDYFPnPLO7YS_QE3Bd-72" edge="1">
          <mxGeometry width="50" height="50" relative="1" as="geometry">
            <mxPoint x="827" y="270" as="sourcePoint" />
            <mxPoint x="827" y="91" as="targetPoint" />
          </mxGeometry>
        </mxCell>
        <mxCell id="MXZDYFPnPLO7YS_QE3Bd-72" value="Formado" style="rhombus;whiteSpace=wrap;html=1;rotation=90;" parent="1" vertex="1">
          <mxGeometry x="790" y="140" width="80" height="80" as="geometry" />
        </mxCell>
        <mxCell id="MXZDYFPnPLO7YS_QE3Bd-75" value="1:N" style="text;html=1;whiteSpace=wrap;strokeColor=none;fillColor=none;align=center;verticalAlign=middle;rounded=0;rotation=90;" parent="1" vertex="1">
          <mxGeometry x="870" y="165" width="60" height="30" as="geometry" />
        </mxCell>
        <mxCell id="MXZDYFPnPLO7YS_QE3Bd-76" value="(1:1)" style="text;html=1;whiteSpace=wrap;strokeColor=none;fillColor=none;align=center;verticalAlign=middle;rounded=0;" parent="1" vertex="1">
          <mxGeometry x="254" y="245" width="60" height="30" as="geometry" />
        </mxCell>
        <mxCell id="MXZDYFPnPLO7YS_QE3Bd-77" value="(1:1)" style="text;html=1;whiteSpace=wrap;strokeColor=none;fillColor=none;align=center;verticalAlign=middle;rounded=0;" parent="1" vertex="1">
          <mxGeometry x="80" y="245" width="60" height="30" as="geometry" />
        </mxCell>
        <mxCell id="MXZDYFPnPLO7YS_QE3Bd-78" value="(0:n)" style="text;html=1;whiteSpace=wrap;strokeColor=none;fillColor=none;align=center;verticalAlign=middle;rounded=0;" parent="1" vertex="1">
          <mxGeometry x="720" y="310" width="60" height="30" as="geometry" />
        </mxCell>
        <mxCell id="MXZDYFPnPLO7YS_QE3Bd-79" value="(1:n)" style="text;html=1;whiteSpace=wrap;strokeColor=none;fillColor=none;align=center;verticalAlign=middle;rounded=0;" parent="1" vertex="1">
          <mxGeometry x="230" y="30" width="60" height="30" as="geometry" />
        </mxCell>
        <mxCell id="MXZDYFPnPLO7YS_QE3Bd-80" value="(1:1)" style="text;html=1;whiteSpace=wrap;strokeColor=none;fillColor=none;align=center;verticalAlign=middle;rounded=0;" parent="1" vertex="1">
          <mxGeometry x="50" y="30" width="60" height="30" as="geometry" />
        </mxCell>
        <mxCell id="MXZDYFPnPLO7YS_QE3Bd-81" value="(n:m)" style="text;html=1;whiteSpace=wrap;strokeColor=none;fillColor=none;align=center;verticalAlign=middle;rounded=0;" parent="1" vertex="1">
          <mxGeometry x="430" y="305" width="60" height="30" as="geometry" />
        </mxCell>
        <mxCell id="MXZDYFPnPLO7YS_QE3Bd-82" value="(0:n)" style="text;html=1;whiteSpace=wrap;strokeColor=none;fillColor=none;align=center;verticalAlign=middle;rounded=0;rotation=-45;" parent="1" vertex="1">
          <mxGeometry x="730" y="110" width="60" height="30" as="geometry" />
        </mxCell>
        <mxCell id="MXZDYFPnPLO7YS_QE3Bd-83" value="(1:n)" style="text;html=1;whiteSpace=wrap;strokeColor=none;fillColor=none;align=center;verticalAlign=middle;rounded=0;rotation=-25;" parent="1" vertex="1">
          <mxGeometry x="440" y="235" width="60" height="30" as="geometry" />
        </mxCell>
        <mxCell id="MXZDYFPnPLO7YS_QE3Bd-84" value="(1:n)" style="text;html=1;whiteSpace=wrap;strokeColor=none;fillColor=none;align=center;verticalAlign=middle;rounded=0;rotation=90;" parent="1" vertex="1">
          <mxGeometry x="354" y="200" width="60" height="30" as="geometry" />
        </mxCell>
        <mxCell id="MXZDYFPnPLO7YS_QE3Bd-85" value="(1:1)" style="text;html=1;whiteSpace=wrap;strokeColor=none;fillColor=none;align=center;verticalAlign=middle;rounded=0;rotation=90;" parent="1" vertex="1">
          <mxGeometry x="350" y="100" width="60" height="30" as="geometry" />
        </mxCell>
        <mxCell id="MXZDYFPnPLO7YS_QE3Bd-86" value="(0:n)" style="text;html=1;whiteSpace=wrap;strokeColor=none;fillColor=none;align=center;verticalAlign=middle;rounded=0;" parent="1" vertex="1">
          <mxGeometry x="404" y="30" width="60" height="30" as="geometry" />
        </mxCell>
        <mxCell id="MXZDYFPnPLO7YS_QE3Bd-88" value="(0:n)" style="text;html=1;whiteSpace=wrap;strokeColor=none;fillColor=none;align=center;verticalAlign=middle;rounded=0;" parent="1" vertex="1">
          <mxGeometry x="680" y="30" width="60" height="30" as="geometry" />
        </mxCell>
        <mxCell id="MXZDYFPnPLO7YS_QE3Bd-89" value="(1:n)" style="text;html=1;whiteSpace=wrap;strokeColor=none;fillColor=none;align=center;verticalAlign=middle;rounded=0;rotation=90;" parent="1" vertex="1">
          <mxGeometry x="360" y="440" width="60" height="30" as="geometry" />
        </mxCell>
        <mxCell id="MXZDYFPnPLO7YS_QE3Bd-90" value="(0:1)" style="text;html=1;whiteSpace=wrap;strokeColor=none;fillColor=none;align=center;verticalAlign=middle;rounded=0;rotation=88;" parent="1" vertex="1">
          <mxGeometry x="360" y="315" width="60" height="30" as="geometry" />
        </mxCell>
      </root>
    </mxGraphModel>
  </diagram>
</mxfile>
